<?xml version="1.0" standalone="no"?>
<!DOCTYPE svg PUBLIC "-//W3C//DTD SVG 20010904//EN"
 "http://www.w3.org/TR/2001/REC-SVG-20010904/DTD/svg10.dtd">
<svg version="1.0" xmlns="http://www.w3.org/2000/svg"
 width="1000.000000pt" height="1000.000000pt" viewBox="0 0 1000.000000 1000.000000"
 preserveAspectRatio="xMidYMid meet">
<metadata>
Created by potrace 1.14, written by Peter Selinger 2001-2017
</metadata>
<g transform="translate(0.000000,1000.000000) scale(0.100000,-0.100000)"
fill="#000000" stroke="none">
<path d="M1640 8039 c-125 -22 -230 -100 -285 -212 -64 -130 -75 -240 -34
-340 20 -47 0 -51 -74 -16 -63 29 -73 31 -160 27 -84 -3 -99 -7 -171 -43 -91
-46 -164 -118 -205 -204 -24 -51 -26 -67 -26 -176 0 -113 2 -123 29 -175 47
-89 137 -171 252 -228 54 -27 131 -66 169 -85 200 -100 282 -137 302 -137 26
0 53 -25 53 -49 0 -9 7 -26 15 -37 13 -18 21 -54 11 -54 -3 0 -36 7 -74 14
-59 13 -78 13 -134 1 -37 -7 -81 -21 -100 -31 -53 -27 -152 -134 -179 -191
-13 -29 -27 -53 -30 -53 -3 0 -22 15 -42 33 -19 19 -52 41 -74 51 -21 9 -50
23 -64 31 -46 25 -200 38 -310 26 -114 -13 -179 -40 -268 -114 -108 -90 -172
-189 -206 -317 -9 -36 -21 -75 -27 -86 -20 -42 6 -173 59 -298 40 -95 99 -169
188 -235 96 -71 146 -89 313 -112 l82 -11 78 -97 c67 -83 128 -156 176 -211
32 -37 143 -174 163 -201 12 -17 36 -45 53 -62 18 -18 47 -55 66 -84 19 -28
41 -54 49 -57 18 -7 95 -123 95 -144 0 -7 6 -28 13 -45 21 -48 34 -92 61 -203
13 -55 35 -122 49 -150 14 -27 31 -60 37 -74 29 -69 145 -207 235 -281 40 -34
76 -67 79 -74 3 -8 23 -26 46 -40 44 -28 51 -45 19 -45 -20 0 -90 -25 -159
-58 -19 -9 -74 -55 -122 -102 -73 -72 -94 -101 -132 -180 l-46 -94 0 -161 c0
-100 5 -180 13 -211 28 -110 174 -278 322 -374 96 -62 300 -140 368 -140 14 0
56 -8 94 -17 58 -15 117 -18 393 -18 282 0 333 2 382 17 31 10 65 18 76 18 21
0 76 22 180 71 l63 30 77 -62 c94 -76 139 -97 262 -120 113 -22 187 -23 295
-4 44 8 92 15 106 15 72 0 291 142 331 215 88 158 98 196 98 377 l0 139 53 -7
c52 -7 97 -34 97 -61 0 -21 99 -204 140 -258 102 -134 265 -263 387 -306 136
-48 351 -69 456 -44 l72 16 119 -30 c158 -41 238 -41 389 -2 149 40 207 66
281 132 56 49 146 170 146 197 0 5 11 34 25 64 22 48 25 66 25 180 l0 126 88
7 c87 7 270 47 307 68 11 6 40 18 65 27 148 52 337 208 501 412 36 46 129 212
129 232 0 9 11 43 25 75 13 33 27 79 30 103 4 23 16 73 27 111 18 59 20 85 15
210 -2 78 -10 167 -16 197 -23 103 -52 215 -67 248 -19 44 -18 65 7 96 28 35
59 33 120 -9 28 -19 55 -35 59 -35 5 0 21 -5 37 -11 66 -28 162 -61 208 -74
28 -7 64 -18 80 -24 53 -19 270 -51 341 -51 78 0 224 29 268 52 28 15 32 14
105 -24 95 -48 169 -62 291 -54 154 10 278 58 364 141 12 11 30 27 42 35 32
23 88 109 125 191 31 70 33 81 33 189 0 97 -4 129 -27 205 -52 171 -75 250
-80 275 -15 72 -52 195 -84 274 -67 170 -134 256 -265 346 l-83 57 -1 114 c-1
70 -8 129 -17 154 -8 22 -20 58 -27 80 -32 104 -144 241 -255 313 -192 125
-335 168 -525 158 -63 -3 -144 -12 -180 -21 -97 -23 -274 -115 -386 -200 -36
-27 -72 -54 -80 -60 -10 -7 -26 2 -61 36 -56 54 -115 93 -198 132 -33 16 -72
35 -86 43 -42 22 -149 33 -230 24 -116 -13 -205 -60 -321 -168 -33 -32 -39
-34 -56 -21 -11 8 -54 40 -95 71 -160 121 -293 168 -474 168 -90 0 -127 -5
-187 -24 l-75 -23 -81 23 c-95 28 -157 30 -255 9 -91 -19 -105 -19 -129 4 -41
39 -182 102 -271 122 -73 17 -109 20 -190 15 -173 -11 -268 -44 -376 -132
l-66 -54 -36 15 c-20 8 -58 15 -84 16 -26 0 -68 4 -93 7 l-45 7 -6 110 c-6 95
-11 118 -36 165 -86 165 -159 239 -303 309 l-95 46 -150 0 c-144 0 -152 -1
-207 -28 -99 -48 -172 -104 -232 -174 -62 -74 -136 -208 -136 -247 0 -33 -17
-42 -40 -21 -47 43 -119 65 -208 65 -114 0 -180 -30 -272 -124 l-65 -66 -12
47 c-18 67 -16 82 10 117 26 34 261 507 284 571 8 23 15 79 15 131 1 81 -2 97
-29 155 -36 78 -134 182 -216 228 -56 32 -61 33 -176 33 -125 0 -155 -9 -235
-66 -76 -54 -139 -128 -151 -179 -8 -31 -23 -35 -32 -9 -35 106 -147 233 -244
277 -68 30 -163 39 -249 24z m134 -376 c14 -21 30 -57 36 -81 6 -23 20 -64 32
-90 11 -26 27 -69 34 -97 7 -27 27 -88 45 -135 44 -119 47 -146 18 -176 -52
-56 -104 -17 -144 106 -27 83 -54 162 -90 265 -15 44 -30 89 -50 160 -3 11 3
34 15 53 29 47 71 45 104 -5z m817 -33 c47 -26 17 -118 -137 -415 -15 -27 -39
-75 -54 -106 -36 -72 -77 -93 -118 -62 -39 29 -39 62 1 140 19 38 76 152 126
255 50 103 97 189 104 191 21 9 58 7 78 -3z m-1235 -602 c136 -67 256 -130
266 -140 39 -39 6 -108 -52 -108 -17 0 -95 32 -177 74 -82 40 -192 94 -246
120 -96 47 -127 74 -127 109 0 24 44 67 69 67 11 0 131 -55 267 -122z m2578
-88 c14 -5 43 -25 65 -45 104 -94 90 -288 -26 -368 -22 -15 -49 -27 -61 -27
-12 0 -38 -15 -58 -33 l-35 -32 -10 -460 c-5 -253 -13 -552 -18 -665 -10 -221
-10 -220 46 -372 13 -37 22 -72 18 -77 -3 -7 -60 -8 -154 -4 -158 6 -192 1
-297 -48 l-42 -20 -98 33 -99 33 -230 -3 c-126 -2 -261 -8 -300 -13 -38 -5
-113 -13 -165 -18 -196 -19 -471 -86 -630 -154 -87 -37 -130 -61 -210 -121
-41 -31 -80 -55 -87 -54 -7 2 -31 28 -55 59 -24 31 -79 99 -123 151 -44 52
-116 139 -160 193 -383 467 -415 503 -445 512 -14 3 -44 -1 -71 -10 -106 -38
-203 -10 -275 80 -92 113 -61 255 74 342 42 26 58 31 113 31 54 0 73 -5 110
-28 24 -16 57 -43 71 -61 26 -30 58 -114 58 -151 0 -47 40 -68 255 -130 61
-17 131 -39 158 -48 29 -10 50 -12 56 -6 5 5 14 70 20 144 22 294 36 410 46
410 10 0 420 -204 440 -220 6 -4 24 -12 42 -18 40 -13 47 -5 63 73 16 80 48
222 71 317 28 113 25 153 -10 186 -15 15 -40 35 -54 44 -32 22 -81 94 -97 143
-26 78 10 189 84 256 29 27 136 69 177 69 67 0 192 -79 225 -141 25 -49 29
-142 10 -213 -22 -81 -14 -102 64 -164 30 -24 82 -67 115 -97 66 -59 234 -195
240 -195 3 0 27 48 55 108 51 108 59 125 97 197 36 68 83 171 83 182 0 6 7 16
16 24 17 14 27 5 229 -215 134 -145 145 -158 145 -167 0 -5 8 -9 19 -9 10 0
30 18 47 43 15 23 42 60 60 82 68 87 164 240 164 262 0 13 -12 47 -27 76 -22
42 -27 66 -28 122 0 89 28 143 100 191 46 31 56 34 127 34 42 0 88 -4 102 -10z
m1326 -538 c101 -37 173 -99 218 -188 73 -143 45 -389 -66 -595 -39 -73 -184
-240 -242 -280 -65 -45 -115 -72 -154 -84 -47 -14 -57 -31 -24 -44 13 -6 43
-24 68 -40 25 -17 48 -31 52 -31 8 0 284 -155 303 -170 6 -4 47 -26 91 -50
105 -54 154 -94 154 -126 0 -42 -61 -143 -118 -195 -54 -49 -65 -53 -147 -50
-47 2 -245 106 -407 214 -80 53 -150 97 -155 97 -4 0 -19 9 -33 20 -45 36 -54
28 -90 -80 -18 -56 -42 -115 -54 -133 -40 -59 -119 -81 -207 -57 -67 19 -70
32 -80 319 -4 141 -13 371 -19 511 -5 140 -13 373 -16 517 l-7 262 32 31 c30
31 33 32 94 25 113 -12 171 -40 219 -107 23 -32 23 -38 28 -348 l5 -315 27 2
c59 4 197 127 273 243 122 187 160 368 103 491 -16 35 -41 69 -67 89 -22 18
-41 39 -41 47 0 7 1 13 3 13 1 0 27 9 57 20 62 23 125 20 200 -8z m1157 -121
c10 -6 34 -17 53 -25 48 -19 162 -116 206 -174 121 -162 158 -235 331 -657 13
-33 28 -69 33 -80 5 -11 12 -30 15 -43 14 -49 65 -149 92 -179 87 -99 157 -3
133 182 -6 44 -18 141 -25 215 -8 74 -22 187 -30 250 -9 63 -16 177 -16 253 0
154 11 189 66 216 51 25 137 -10 231 -93 77 -68 86 -89 125 -316 18 -101 20
-163 21 -505 1 -325 -2 -397 -14 -430 -54 -142 -112 -218 -192 -253 -60 -27
-164 -34 -228 -16 -29 8 -66 18 -83 23 -67 18 -191 128 -263 232 -47 69 -152
252 -202 352 -24 48 -48 87 -53 87 -6 0 -7 -30 -3 -77 3 -43 11 -187 16 -321
9 -209 8 -247 -5 -272 -29 -57 -111 -94 -207 -93 -82 1 -135 32 -173 103 l-29
55 -9 315 c-9 317 5 1197 19 1233 4 10 16 23 28 28 25 11 138 4 163 -10z
m-512 -11 c68 -29 141 -97 165 -152 19 -44 20 -68 21 -455 0 -361 16 -753 35
-889 9 -61 -19 -111 -86 -156 -73 -49 -95 -52 -156 -22 -63 30 -95 75 -129
182 -55 173 -60 234 -60 667 1 339 4 430 22 599 19 175 24 201 44 222 28 30
79 32 144 4z m2737 2 c85 -28 184 -98 234 -166 26 -36 29 -46 29 -127 0 -79
-2 -90 -25 -114 -31 -34 -79 -55 -125 -55 -52 0 -162 48 -202 88 l-35 34 -46
-25 c-104 -56 -228 -190 -296 -318 -113 -213 -111 -412 6 -529 39 -39 157 -96
218 -106 48 -8 46 -18 19 89 -22 86 19 196 103 273 53 49 191 121 278 147 36
10 88 25 115 34 28 8 85 15 129 15 72 0 82 -3 126 -33 84 -58 102 -99 210
-484 72 -254 74 -264 60 -315 -12 -47 -48 -93 -90 -115 -39 -20 -133 -29 -173
-16 -47 16 -117 103 -117 146 0 17 -6 54 -14 81 -14 50 -33 133 -64 284 l-18
85 -42 -2 c-80 -4 -198 -98 -252 -201 -18 -36 -7 -49 57 -67 78 -23 103 -35
125 -66 60 -81 -94 -239 -232 -239 -106 0 -365 68 -485 127 -141 70 -209 122
-283 218 -137 177 -168 356 -111 630 21 104 55 196 93 251 14 21 26 42 26 47
0 27 176 217 255 276 71 54 194 127 251 150 66 27 200 28 276 3z m-3792 -1806
c97 -20 180 -66 227 -125 38 -47 41 -56 47 -133 14 -186 66 -470 107 -593 6
-16 19 -57 29 -90 30 -98 55 -164 104 -280 26 -60 56 -130 66 -155 10 -25 40
-92 66 -150 86 -194 153 -364 164 -416 14 -66 5 -118 -28 -167 -38 -57 -53
-62 -177 -60 -126 1 -163 14 -263 87 -77 57 -128 122 -179 227 -44 91 -103
261 -122 350 -7 31 -18 64 -25 74 -13 18 -15 17 -51 -5 -88 -55 -265 -63 -420
-20 -110 30 -276 114 -341 172 -12 11 -24 15 -28 10 -3 -5 -1 -59 5 -118 33
-348 47 -686 30 -735 -18 -56 -51 -79 -138 -100 -98 -23 -147 -24 -224 -2 -78
22 -117 64 -147 158 -19 60 -23 109 -32 340 -14 375 -13 1539 1 1607 13 63 47
104 94 112 41 8 278 -37 312 -59 68 -45 96 -90 140 -230 14 -44 32 -96 40
-115 50 -114 85 -181 115 -218 18 -23 46 -59 62 -79 17 -21 59 -62 94 -92 l63
-53 39 42 c21 23 50 65 63 93 36 76 52 250 43 468 -7 168 -7 172 16 205 39 58
126 76 248 50z m2030 -7 c47 -6 111 -19 143 -30 31 -10 64 -19 73 -19 20 0
137 -71 189 -114 97 -80 152 -225 162 -426 4 -95 2 -132 -15 -210 -25 -115
-45 -172 -72 -210 -11 -15 -20 -31 -20 -34 0 -19 -97 -149 -147 -196 -121
-115 -238 -179 -397 -214 -57 -14 -260 -8 -311 7 -91 28 -151 54 -191 81 -52
35 -65 34 -54 -5 5 -18 12 -178 15 -358 l6 -326 -30 -46 c-26 -41 -38 -50 -96
-69 -56 -19 -83 -22 -163 -18 -111 5 -152 21 -179 71 -25 46 -39 246 -57 792
-8 253 -18 488 -21 521 -8 77 9 173 41 234 18 35 36 52 70 70 42 20 55 22 135
16 104 -8 111 0 40 44 -118 73 -168 226 -102 316 62 87 161 116 471 138 89 6
418 -3 510 -15z m-3706 -38 c196 -75 300 -255 239 -415 -23 -62 -71 -101 -146
-121 -73 -19 -184 -19 -229 -1 -28 12 -82 63 -129 124 -12 15 -192 17 -253 1
-55 -14 -143 -88 -133 -112 3 -9 40 -38 82 -64 344 -216 430 -278 563 -406
180 -173 245 -362 213 -614 -14 -115 -44 -189 -114 -283 -63 -85 -128 -139
-229 -189 -71 -34 -101 -43 -207 -57 -133 -17 -319 -16 -506 5 -128 14 -173
25 -264 63 -96 39 -141 67 -206 131 -44 43 -55 61 -65 107 -17 80 7 160 65
216 62 60 115 67 280 34 281 -55 337 -63 439 -58 139 7 208 33 286 108 56 53
60 61 60 102 0 39 -6 51 -49 99 -62 70 -138 129 -227 175 -38 20 -85 49 -104
64 -19 15 -53 36 -75 48 -55 28 -256 150 -280 171 -11 9 -38 29 -60 44 -114
78 -199 158 -266 249 -37 51 -54 87 -71 151 -22 83 -22 84 -3 133 17 46 87
124 110 124 6 0 26 11 45 24 67 45 358 130 480 141 41 3 102 10 135 16 94 16
320 28 436 24 87 -4 120 -10 183 -34z"/>
<path d="M2380 5637 c0 -18 -7 -57 -15 -87 -18 -62 -55 -229 -55 -247 0 -7 53
-54 118 -106 64 -51 123 -101 131 -110 20 -25 38 -21 45 11 7 29 49 186 73
269 8 29 13 57 11 62 -3 9 -137 120 -182 151 -12 8 -43 32 -68 53 -25 20 -48
37 -52 37 -3 0 -6 -15 -6 -33z"/>
<path d="M6435 4050 c-38 -4 -113 -21 -165 -38 -52 -18 -106 -32 -120 -32 -14
0 -31 -4 -39 -9 -11 -7 -7 -13 18 -25 55 -29 81 -81 88 -180 5 -79 9 -90 42
-134 79 -106 170 -157 295 -168 139 -13 287 60 357 176 29 49 33 62 33 130 0
67 -3 79 -30 116 -73 100 -168 151 -309 165 -49 5 -92 8 -95 7 -3 0 -36 -4
-75 -8z"/>
</g>
</svg>
